<?xml version="1.0" encoding="UTF-8" standalone="no"?>
<!DOCTYPE svg PUBLIC "-//W3C//DTD SVG 1.1//EN" "http://www.w3.org/Graphics/SVG/1.1/DTD/svg11.dtd">
<svg xmlns="http://www.w3.org/2000/svg" xmlns:xl="http://www.w3.org/1999/xlink" version="1.1" viewBox="0 86 630 468" width="630pt" height="468pt" xmlns:dc="http://purl.org/dc/elements/1.1/">
  <metadata> Produced by OmniGraffle 7.5 
    <dc:date>2017-11-04 17:43:39 +0000</dc:date>
  </metadata>
  <defs/>
  <g stroke="none" stroke-opacity="1" stroke-dasharray="none" fill="none" fill-opacity="1">
    <title>four-oh-four 2</title>
    <g>
      <title>Layer 1</title>
      <path d="M 354.5 300.5 L 59.5 439.061 L 275.5 547.5 L 570.5 408.93902 Z M 397.8153 334.8325 L 536.547 404.48035 L 455.94537 441.2634 L 317.21366 371.6156 Z M 305.42003 377.4818 L 345.4623 398.43247 L 264.86066 435.21553 L 224.8184 414.26486 Z M 360.1 316.76586 L 382.0984 327.64404 L 117.89838 451.9816 L 95.9 441.1034 Z M 211.96228 421.1586 L 252.00454 442.1093 L 171.4029 478.89236 L 131.36066 457.9417 Z" fill="white" fill-opacity=".49840943"/>
      <path d="M 315 379.83333 C 331.86667 379.83333 345.66667 366.03333 345.66667 349.16667 C 345.66667 332.3 331.86667 318.5 315 318.5 C 298.13333 318.5 284.33333 332.3 284.33333 349.16667 C 284.33333 366.03333 298.13333 379.83333 315 379.83333 Z M 407 241.83333 L 391.66667 241.83333 L 391.66667 211.16667 C 391.66667 168.84667 357.32 134.5 315 134.5 C 272.68 134.5 238.33333 168.84667 238.33333 211.16667 L 267.46667 211.16667 C 267.46667 184.94667 288.78 163.63333 315 163.63333 C 341.22 163.63333 362.53333 184.94667 362.53333 211.16667 L 362.53333 241.83333 L 223 241.83333 C 206.13333 241.83333 192.33333 255.63333 192.33333 272.5 L 192.33333 425.83333 C 192.33333 442.7 206.13333 456.5 223 456.5 L 407 456.5 C 423.86667 456.5 437.66667 442.7 437.66667 425.83333 L 437.66667 272.5 C 437.66667 255.63333 423.86667 241.83333 407 241.83333 Z M 407 425.83333 L 223 425.83333 L 223 272.5 L 407 272.5 L 407 425.83333 Z" fill="white"/>
      <path d="M 315 379.83333 C 331.86667 379.83333 345.66667 366.03333 345.66667 349.16667 C 345.66667 332.3 331.86667 318.5 315 318.5 C 298.13333 318.5 284.33333 332.3 284.33333 349.16667 C 284.33333 366.03333 298.13333 379.83333 315 379.83333 Z M 407 241.83333 L 391.66667 241.83333 L 391.66667 211.16667 C 391.66667 168.84667 357.32 134.5 315 134.5 C 272.68 134.5 238.33333 168.84667 238.33333 211.16667 L 267.46667 211.16667 C 267.46667 184.94667 288.78 163.63333 315 163.63333 C 341.22 163.63333 362.53333 184.94667 362.53333 211.16667 L 362.53333 241.83333 L 223 241.83333 C 206.13333 241.83333 192.33333 255.63333 192.33333 272.5 L 192.33333 425.83333 C 192.33333 442.7 206.13333 456.5 223 456.5 L 407 456.5 C 423.86667 456.5 437.66667 442.7 437.66667 425.83333 L 437.66667 272.5 C 437.66667 255.63333 423.86667 241.83333 407 241.83333 Z M 407 425.83333 L 223 425.83333 L 223 272.5 L 407 272.5 L 407 425.83333 Z" stroke="#0079bf" stroke-linecap="round" stroke-linejoin="round" stroke-width="5"/>
    </g>
  </g>
</svg>
