<?xml version="1.0" encoding="UTF-8" standalone="no"?>
<!DOCTYPE svg PUBLIC "-//W3C//DTD SVG 1.1//EN" "http://www.w3.org/Graphics/SVG/1.1/DTD/svg11.dtd">
<svg xmlns="http://www.w3.org/2000/svg" xmlns:xl="http://www.w3.org/1999/xlink" version="1.1" viewBox="229 229 172 172" width="172pt" height="172pt" xmlns:dc="http://purl.org/dc/elements/1.1/">
  <metadata> Produced by OmniGraffle 7.5 
    <dc:date>2017-10-18 21:24:26 +0000</dc:date>
  </metadata>
  <defs/>
  <g stroke="none" stroke-opacity="1" stroke-dasharray="none" fill="none" fill-opacity="1">
    <title>print</title>
    <rect fill="#0079bf" width="630" height="630"/>
    <g>
      <title>Layer 1</title>
      <path d="M 369.8077 244.15714 L 369.8077 234.38571 C 369.8077 231.6874 367.84463 229.5 365.42308 229.5 L 264.57692 229.5 C 262.15537 229.5 260.1923 231.6874 260.1923 234.38571 L 260.1923 244.15714 Z M 369.8077 346.75714 L 388.8077 346.75714 C 395.26518 346.75714 400.5 340.92405 400.5 333.72857 L 400.5 262.07143 C 400.5 254.87595 395.26518 249.04286 388.8077 249.04286 L 241.1923 249.04286 C 234.73482 249.04286 229.5 254.87595 229.5 262.07143 L 229.5 333.72857 C 229.5 340.92405 234.73482 346.75714 241.1923 346.75714 L 260.1923 346.75714 L 260.1923 400.5 L 369.8077 400.5 Z M 268.96154 307.67143 L 361.03846 307.67143 L 361.03846 390.72857 L 268.96154 390.72857 Z" fill="white"/>
    </g>
  </g>
</svg>
