<?xml version="1.0" encoding="UTF-8" standalone="no"?>
<!DOCTYPE svg PUBLIC "-//W3C//DTD SVG 1.1//EN" "http://www.w3.org/Graphics/SVG/1.1/DTD/svg11.dtd">
<svg xmlns="http://www.w3.org/2000/svg" xmlns:xl="http://www.w3.org/1999/xlink" version="1.1" viewBox="0 86 630 468" width="630pt" height="468pt" xmlns:dc="http://purl.org/dc/elements/1.1/">
  <metadata> Produced by OmniGraffle 7.5 
    <dc:date>2017-11-04 17:50:03 +0000</dc:date>
  </metadata>
  <defs/>
  <g stroke="none" stroke-opacity="1" stroke-dasharray="none" fill="none" fill-opacity="1">
    <title>print</title>
    <g>
      <title>Layer 1</title>
      <path d="M 354.5 300.5 L 59.5 439.061 L 275.5 547.5 L 570.5 408.93902 Z M 397.8153 334.8325 L 536.547 404.48035 L 455.94537 441.2634 L 317.21366 371.6156 Z M 305.42003 377.4818 L 345.4623 398.43247 L 264.86066 435.21553 L 224.8184 414.26486 Z M 360.1 316.76586 L 382.0984 327.64404 L 117.89838 451.9816 L 95.9 441.1034 Z M 211.96228 421.1586 L 252.00454 442.1093 L 171.4029 478.89236 L 131.36066 457.9417 Z" fill="white" fill-opacity=".498409"/>
      <path d="M 404.1026 204.82857 L 404.1026 188.94285 C 404.1026 184.55612 400.91115 181 396.97436 181 L 233.02564 181 C 229.08885 181 225.89742 184.55612 225.89742 188.94285 L 225.89742 204.82857 Z M 404.1026 371.62857 L 434.99147 371.62857 C 445.4896 371.62857 454 362.14553 454 350.4476 L 454 233.95238 C 454 222.25447 445.4896 212.77143 434.99147 212.77143 L 195.00853 212.77143 C 184.5104 212.77143 176 222.25447 176 233.95238 L 176 350.4476 C 176 362.14553 184.5104 371.62857 195.00853 371.62857 L 225.89742 371.62857 L 225.89742 459 L 404.1026 459 Z M 240.15385 308.0857 L 389.84615 308.0857 L 389.84615 443.1143 L 240.15385 443.1143 Z" fill="white"/>
      <path d="M 404.1026 204.82857 L 404.1026 188.94285 C 404.1026 184.55612 400.91115 181 396.97436 181 L 233.02564 181 C 229.08885 181 225.89742 184.55612 225.89742 188.94285 L 225.89742 204.82857 Z M 404.1026 371.62857 L 434.99147 371.62857 C 445.4896 371.62857 454 362.14553 454 350.4476 L 454 233.95238 C 454 222.25447 445.4896 212.77143 434.99147 212.77143 L 195.00853 212.77143 C 184.5104 212.77143 176 222.25447 176 233.95238 L 176 350.4476 C 176 362.14553 184.5104 371.62857 195.00853 371.62857 L 225.89742 371.62857 L 225.89742 459 L 404.1026 459 Z M 240.15385 308.0857 L 389.84615 308.0857 L 389.84615 443.1143 L 240.15385 443.1143 Z" stroke="#0078c0" stroke-linecap="round" stroke-linejoin="round" stroke-width="4"/>
    </g>
  </g>
</svg>
