<?xml version="1.0" encoding="UTF-8" standalone="no"?>
<!DOCTYPE svg PUBLIC "-//W3C//DTD SVG 1.1//EN" "http://www.w3.org/Graphics/SVG/1.1/DTD/svg11.dtd">
<svg xmlns="http://www.w3.org/2000/svg" xmlns:xl="http://www.w3.org/1999/xlink" version="1.1" viewBox="0 86 630 468" width="630pt" height="468pt" xmlns:dc="http://purl.org/dc/elements/1.1/">
  <metadata> Produced by OmniGraffle 7.5 
    <dc:date>2017-11-04 17:32:04 +0000</dc:date>
  </metadata>
  <defs/>
  <g stroke="none" stroke-opacity="1" stroke-dasharray="none" fill="none" fill-opacity="1">
    <title>four-oh-four</title>
    <g>
      <title>Layer 1</title>
      <path d="M 354.5 300.5 L 59.5 439.061 L 275.5 547.5 L 570.5 408.93902 Z M 397.8153 334.8325 L 536.547 404.48035 L 455.94537 441.2634 L 317.21366 371.6156 Z M 305.42003 377.4818 L 345.4623 398.43247 L 264.86066 435.21553 L 224.8184 414.26486 Z M 360.1 316.76586 L 382.0984 327.64404 L 117.89838 451.9816 L 95.9 441.1034 Z M 211.96228 421.1586 L 252.00454 442.1093 L 171.4029 478.89236 L 131.36066 457.9417 Z" fill="white"/>
      <path d="M 303.01642 92.5 C 322.6877 145.21898 312.45862 173.93902 290.4268 196.75769 C 266.42787 221.9369 229.05247 240.82131 202.69298 277.8033 C 167.67814 326.98144 161.77676 435.1734 288.06626 463.5 C 234.95385 435.5668 223.54452 354.5212 280.9846 303.76935 C 266.03445 352.9475 293.5742 384.42153 327.8022 373.0122 C 361.24335 361.60286 383.27517 385.6018 382.4883 413.14157 C 382.0949 432.026 374.6198 448.1564 355.34198 457.2052 C 437.56785 442.64846 470.61557 374.5859 470.61557 322.65376 C 470.61557 254.19777 409.63466 244.75557 440.32183 187.31548 C 403.7333 190.46288 391.14367 214.46182 394.6845 253.80435 C 397.04505 279.7704 369.8987 297.47455 349.83402 285.6718 C 333.7036 275.83616 334.097 256.95175 348.26032 242.78844 C 378.55406 212.88812 390.3568 144.0387 303.01642 92.5 Z" fill="#f2d600"/>
      <path d="M 303.01642 92.5 C 322.6877 145.21898 312.45862 173.93902 290.4268 196.75769 C 266.42787 221.9369 229.05247 240.82131 202.69298 277.8033 C 167.67814 326.98144 161.77676 435.1734 288.06626 463.5 C 234.95385 435.5668 223.54452 354.5212 280.9846 303.76935 C 266.03445 352.9475 293.5742 384.42153 327.8022 373.0122 C 361.24335 361.60286 383.27517 385.6018 382.4883 413.14157 C 382.0949 432.026 374.6198 448.1564 355.34198 457.2052 C 437.56785 442.64846 470.61557 374.5859 470.61557 322.65376 C 470.61557 254.19777 409.63466 244.75557 440.32183 187.31548 C 403.7333 190.46288 391.14367 214.46182 394.6845 253.80435 C 397.04505 279.7704 369.8987 297.47455 349.83402 285.6718 C 333.7036 275.83616 334.097 256.95175 348.26032 242.78844 C 378.55406 212.88812 390.3568 144.0387 303.01642 92.5 Z" stroke="#eb5a46" stroke-linecap="round" stroke-linejoin="round" stroke-width="4"/>
    </g>
  </g>
</svg>
