<?xml version="1.0" encoding="UTF-8" standalone="no"?>
<!DOCTYPE svg PUBLIC "-//W3C//DTD SVG 1.1//EN" "http://www.w3.org/Graphics/SVG/1.1/DTD/svg11.dtd">
<svg xmlns="http://www.w3.org/2000/svg" xmlns:xl="http://www.w3.org/1999/xlink" version="1.1" viewBox="0 0 1e3 1e3" width="1000pt" height="1000pt" xmlns:dc="http://purl.org/dc/elements/1.1/">
  <metadata> Produced by OmniGraffle 7.3 
    <dc:date>2017-05-09 17:07:29 +0000</dc:date>
  </metadata>
  <defs/>
  <g stroke="none" stroke-opacity="1" stroke-dasharray="none" fill="none" fill-opacity="1">
    <title>404</title>
    <g>
      <title>Layer 1</title>
      <rect x="125.12547" y="41.59649" width="487.6" height="487.6" stroke="white" stroke-linecap="round" stroke-linejoin="round" stroke-width="6"/>
      <rect x="146.32547" y="62.79649" width="487.6" height="487.6" stroke="white" stroke-linecap="round" stroke-linejoin="round" stroke-width="6"/>
      <rect x="167.52547" y="83.99649" width="487.6" height="487.6" stroke="white" stroke-linecap="round" stroke-linejoin="round" stroke-width="6"/>
      <path d="M 930.4167 747.3023 L 879.7164 714.3772 L 807.2135 826.0219 C 793.6826 846.8577 771.1887 852.9859 751.9156 840.4698 C 733.1635 828.292 729.54495 809.1559 742.512 789.1883 L 817.3829 673.8973 L 768.5926 642.2125 L 695.6386 754.5518 C 682.2205 775.2139 660.4121 781.0467 641.139 768.5306 C 621.5187 755.7891 618.4211 736.9912 632.403 715.461 L 706.259 601.73265 L 655.5588 568.8075 L 573.47146 695.2109 C 549.1159 732.7152 557.3608 773.6168 593.8233 797.2959 C 621.0834 814.9988 652.8925 814.6731 676.44906 796.6452 L 677.49084 797.3218 C 667.9555 825.6894 677.6871 851.7576 704.5999 869.235 C 729.42915 885.3593 759.1637 884.4269 781.63555 866.929 L 782.6773 867.6055 L 760.5769 901.6372 L 809.5409 933.4348 Z" fill="white" fill-opacity=".1"/>
      <path d="M 592.59155 893.8854 L 604.12655 834.5429 L 473.45126 809.1422 C 449.06396 804.4018 434.9556 785.8415 439.3405 763.2832 C 443.60686 741.3346 459.99405 730.8111 483.3652 735.354 L 618.3083 761.58425 L 629.40874 704.4773 L 497.92054 678.9186 C 473.73647 674.2177 460.1588 656.1823 464.5437 633.62406 C 469.00756 610.65935 485.27624 600.7455 510.47645 605.6439 L 643.5905 631.51865 L 655.1255 572.1762 L 507.17585 543.4177 C 463.2787 534.885 428.44396 557.8516 420.14824 600.52934 C 413.9462 632.43606 426.1641 661.807 451.70365 676.89485 L 451.46663 678.1142 C 421.59266 679.8999 401.0681 698.6882 394.94506 730.1885 C 389.29607 759.25 401.2993 786.47015 425.94124 800.7508 L 425.7042 801.9702 L 385.87163 794.2275 L 374.73166 851.5377 Z" fill="white" fill-opacity=".1"/>
      <path d="M 780.3982 871.8409 L 756.7773 816.1935 L 634.2387 868.2081 C 611.3699 877.9153 589.2947 870.4174 580.31554 849.2637 C 571.579 828.6818 579.2799 810.7938 601.19586 801.491 L 727.7365 747.7777 L 705.0054 694.2266 L 581.7045 746.5648 C 559.0263 756.1911 537.68463 748.8316 528.70545 727.678 C 519.5645 706.1432 527.50806 688.8269 551.13914 678.7961 L 675.9646 625.8108 L 652.3437 570.1634 L 513.6064 629.0539 C 472.44255 646.52694 456.406 685.04645 473.39364 725.0668 C 486.0939 754.9868 512.647 772.5043 542.2573 770.73115 L 542.7427 771.8746 C 518.9746 790.0603 512.4652 817.1137 525.0037 846.6526 C 536.5715 873.9046 561.74395 889.7589 590.1587 887.8186 L 590.64405 888.962 L 553.2917 904.8171 L 576.1037 958.5588 Z" fill="white" fill-opacity=".1"/>
      <path d="M 871.6879 815.1477 L 831.2368 770.2223 L 732.3086 859.2977 C 713.8461 875.9214 690.5325 876.0189 675.15556 858.9411 C 660.1942 842.3248 661.6518 822.9042 679.345 806.9732 L 781.5042 714.9886 L 742.577 671.7556 L 643.03335 761.3851 C 624.7247 777.8703 602.14975 777.8599 586.7728 760.7821 C 571.1188 743.3966 572.992 724.4375 592.0699 707.2597 L 692.8444 616.5219 L 652.3934 571.5965 L 540.3875 672.447 C 507.155 702.3697 504.53286 744.0116 533.62436 776.321 C 555.3737 800.4761 586.1833 808.3943 613.6031 797.0776 L 614.4343 798.00075 C 597.8818 822.9338 600.5348 850.6326 622.0071 874.48 C 641.817 896.4811 670.7797 903.2764 697.0147 892.1908 L 697.84585 893.1139 L 667.6904 920.266 L 706.75615 963.6529 Z" fill="white" fill-opacity=".1"/>
      <path d="M 830.4054 841.0972 L 797.4802 790.397 L 685.8355 862.8999 C 664.99975 876.4308 641.95795 872.8801 629.4419 853.6071 C 617.2641 834.8549 621.7418 815.9014 641.70935 802.9343 L 757.00035 728.06345 L 725.31555 679.2731 L 612.9763 752.2271 C 592.3142 765.6452 570.0188 762.1035 557.50273 742.8305 C 544.76116 723.2102 549.5771 704.7775 571.10736 690.7956 L 684.8357 616.9396 L 651.91055 566.23935 L 525.50717 648.32666 C 488.00287 672.6822 478.8988 713.4013 502.5778 749.8638 C 520.2807 777.1238 549.4723 789.7642 578.3248 782.8763 L 579.00136 783.9181 C 558.7523 805.9548 557.0396 833.7276 574.517 860.6404 C 590.64126 885.4696 618.1844 896.712 645.8305 889.8669 L 646.507 890.9087 L 612.47534 913.0091 L 644.2729 961.9731 Z" fill="white"/>
    </g>
  </g>
</svg>
