<?xml version="1.0" encoding="UTF-8" standalone="no"?>
<!DOCTYPE svg PUBLIC "-//W3C//DTD SVG 1.1//EN" "http://www.w3.org/Graphics/SVG/1.1/DTD/svg11.dtd">
<svg xmlns="http://www.w3.org/2000/svg" xmlns:xl="http://www.w3.org/1999/xlink" version="1.1" viewBox="2 2 96 96" width="8pc" height="8pc" xmlns:dc="http://purl.org/dc/elements/1.1/">
  <metadata> Produced by OmniGraffle 7.3
    <dc:date>2017-05-01 17:12:52 +0000</dc:date>
  </metadata>
  <defs/>
  <g stroke="none" stroke-opacity="1" stroke-dasharray="none" fill="none" fill-opacity="1">
    <title>footer</title>
    <g>
      <title>Layer 1</title>
      <rect x="2.9999986" y="2.9999986" width="94" height="94" stroke="#d53880" stroke-linecap="round" stroke-linejoin="miter" stroke-width="2"/>
      <path d="M 17.077035 56.469074 C 17.077035 64.786455 22.676317 69.97802 31.482956 69.97802 C 40.47986 69.97802 45.861695 65.058264 45.861695 56.251626 L 45.861695 30.021978 L 35.913456 30.021978 L 35.913456 56.197264 C 35.913456 59.67643 34.309778 61.55192 31.37423 61.55192 C 28.52023 61.55192 26.699103 59.59489 26.671922 56.469074 Z" stroke="#d53880" stroke-linecap="round" stroke-linejoin="miter" stroke-width="2"/>
      <path d="M 51.80074 30.021978 L 51.80074 69.244136 L 61.77616 69.244136 L 61.77616 57.74658 L 68.19087 57.74658 C 76.91597 57.74658 82.92297 52.2832 82.92297 43.91146 C 82.92297 35.485355 77.21496 30.021978 68.788854 30.021978 Z M 61.77616 37.659834 L 66.1523 37.659834 C 70.33817 37.659834 72.83882 39.861493 72.83882 43.93864 C 72.83882 48.04297 70.33817 50.24463 66.09794 50.24463 L 61.77616 50.24463 Z" stroke="#d53880" stroke-linecap="round" stroke-linejoin="miter" stroke-width="2"/>
    </g>
  </g>
</svg>
